<svg xmlns="http://www.w3.org/2000/svg" width="512" height="512" viewBox="0 0 512 512" role="img">
  <title>Bitácora Enterprise — favicon (monograma BE con aguja)</title>
  <desc>Favicon: letras BE (B blanca, E dorada) con una aguja de brújula entre ambas, sobre fondo negro. Letras trazadas desde Bebas Neue (OFL); autocontenido, sin dependencia de fuente.</desc>
  <rect width="512" height="512" fill="#0e0e0e"/>
  <g transform="translate(27.47,378.00) scale(0.34857,-0.34857)" fill="#ffffff"><path d="M41 700H207Q292 700 331.0 660.5Q370 621 370 539V511Q370 457 352.5 423.0Q335 389 299 374V372Q381 344 381 226V166Q381 85 338.5 42.5Q296 0 214 0H41ZM194 415Q227 415 243.5 432.0Q260 449 260 489V528Q260 566 246.5 583.0Q233 600 204 600H151V415ZM214 100Q243 100 257.0 115.5Q271 131 271 169V230Q271 278 254.5 296.5Q238 315 200 315H151V100Z"/></g>
  <polygon points="263.00,282.11 326.20,229.89 263.00,397.52 199.80,229.89" fill="#5c5c5c"/>
  <polygon points="263.00,81.78 326.20,229.89 263.00,282.11 199.80,229.89" fill="#f2c118"/>
  <g transform="translate(350.94,378.00) scale(0.34857,-0.34857)" fill="#f2c118"><path d="M41 700H341V600H151V415H302V315H151V100H341V0H41Z"/></g>
</svg>
