<svg xmlns="http://www.w3.org/2000/svg" width="944.2" height="257.0" viewBox="0 0 944.2 257.0" role="img">
  <title>Bitácora Enterprise — lockup de footer (insignia con marco + wordmark)</title>
  <desc>Lockup horizontal de marca: insignia BE con marco a la izquierda y wordmark «BITÁCORA ENTERPRISE» a la derecha, alturas iguales y centros alineados. SVG unico autocontenido (Bebas Neue trazada). Fondo transparente. Solo sobre fondo oscuro.</desc>
  <!-- Composicion de insignia-be-marco + wordmark-be-izquierda (arte final). -->
  <g transform="translate(-47.500 -71.500) scale(1.00000)">
  <rect x="50" y="74" width="300" height="252" rx="38" fill="none" stroke="#f2c118" stroke-width="5"/>
  <path transform="translate(91.36 256.00) scale(0.16000 -0.16000)" fill="#ffffff" d="M41 700H207Q292 700 331.0 660.5Q370 621 370 539V511Q370 457 352.5 423.0Q335 389 299 374V372Q381 344 381 226V166Q381 85 338.5 42.5Q296 0 214 0H41ZM194 415Q227 415 243.5 432.0Q260 449 260 489V528Q260 566 246.5 583.0Q233 600 204 600H151V415ZM214 100Q243 100 257.0 115.5Q271 131 271 169V230Q271 278 254.5 296.5Q238 315 200 315H151V100Z"/>
  <polygon points="200,127 229,195 200,219 171,195" fill="#f2c118"/>
  <polygon points="200,219 229,195 200,272 171,195" fill="#5c5c5c"/>
  <path transform="translate(244.00 256.00) scale(0.16000 -0.16000)" fill="#f2c118" d="M41 700H341V600H151V415H302V315H151V100H341V0H41Z"/>
  </g>
  <g transform="translate(322.168 -99.345) scale(2.15966)">
  <g>
    <path transform="translate(24.00 100) scale(0.06200 -0.06200)" fill="#ffffff" d="M41 700H207Q292 700 331.0 660.5Q370 621 370 539V511Q370 457 352.5 423.0Q335 389 299 374V372Q381 344 381 226V166Q381 85 338.5 42.5Q296 0 214 0H41ZM194 415Q227 415 243.5 432.0Q260 449 260 489V528Q260 566 246.5 583.0Q233 600 204 600H151V415ZM214 100Q243 100 257.0 115.5Q271 131 271 169V230Q271 278 254.5 296.5Q238 315 200 315H151V100Z"/>
    <path transform="translate(55.05 100) scale(0.06200 -0.06200)" fill="#ffffff" d="M41 700H151V0H41Z"/>
    <path transform="translate(72.95 100) scale(0.06200 -0.06200)" fill="#ffffff" d="M127 600H12V700H352V600H237V0H127Z"/>
    <path transform="translate(101.52 100) scale(0.06200 -0.06200)" fill="#ffffff" d="M126 700H275L389 0H279L259 139V137H134L114 0H12ZM246 232 197 578H195L147 232ZM211 862H331L224 747H141Z"/>
    <path transform="translate(132.38 100) scale(0.06200 -0.06200)" fill="#ffffff" d="M34 162V538Q34 620 75.5 665.0Q117 710 196 710Q275 710 316.5 665.0Q358 620 358 538V464H254V545Q254 610 199 610Q144 610 144 545V154Q144 90 199 90Q254 90 254 154V261H358V162Q358 80 316.5 35.0Q275 -10 196 -10Q117 -10 75.5 35.0Q34 80 34 162Z"/>
    <path transform="translate(162.13 100) scale(0.06200 -0.06200)" fill="#ffffff" d="M33 166V534Q33 618 76.0 664.0Q119 710 200 710Q281 710 324.0 664.0Q367 618 367 534V166Q367 82 324.0 36.0Q281 -10 200 -10Q119 -10 76.0 36.0Q33 82 33 166ZM257 159V541Q257 610 200 610Q143 610 143 541V159Q143 90 200 90Q257 90 257 159Z"/>
    <path transform="translate(192.93 100) scale(0.06200 -0.06200)" fill="#ffffff" d="M41 700H204Q289 700 328.0 660.5Q367 621 367 539V496Q367 387 295 358V356Q335 344 351.5 307.0Q368 270 368 208V85Q368 55 370.0 36.5Q372 18 380 0H268Q262 17 260.0 32.0Q258 47 258 86V214Q258 262 242.5 281.0Q227 300 189 300H151V0H41ZM191 400Q224 400 240.5 417.0Q257 434 257 474V528Q257 566 243.5 583.0Q230 600 201 600H151V400Z"/>
    <path transform="translate(223.91 100) scale(0.06200 -0.06200)" fill="#ffffff" d="M126 700H275L389 0H279L259 139V137H134L114 0H12ZM246 232 197 578H195L147 232Z"/>
  </g>
  <line x1="24" y1="124" x2="288" y2="124" stroke="#f2c118" stroke-width="2"/>
  <g>
    <path transform="translate(24.00 164) scale(0.02700 -0.02700)" fill="#f2c118" d="M41 700H341V600H151V415H302V315H151V100H341V0H41Z"/>
    <path transform="translate(46.80 164) scale(0.02700 -0.02700)" fill="#f2c118" d="M41 700H179L286 281H288V700H386V0H273L141 511H139V0H41Z"/>
    <path transform="translate(71.33 164) scale(0.02700 -0.02700)" fill="#f2c118" d="M127 600H12V700H352V600H237V0H127Z"/>
    <path transform="translate(94.16 164) scale(0.02700 -0.02700)" fill="#f2c118" d="M41 700H341V600H151V415H302V315H151V100H341V0H41Z"/>
    <path transform="translate(116.96 164) scale(0.02700 -0.02700)" fill="#f2c118" d="M41 700H204Q289 700 328.0 660.5Q367 621 367 539V496Q367 387 295 358V356Q335 344 351.5 307.0Q368 270 368 208V85Q368 55 370.0 36.5Q372 18 380 0H268Q262 17 260.0 32.0Q258 47 258 86V214Q258 262 242.5 281.0Q227 300 189 300H151V0H41ZM191 400Q224 400 240.5 417.0Q257 434 257 474V528Q257 566 243.5 583.0Q230 600 201 600H151V400Z"/>
    <path transform="translate(140.84 164) scale(0.02700 -0.02700)" fill="#f2c118" d="M41 700H203Q285 700 326.0 656.0Q367 612 367 527V458Q367 373 326.0 329.0Q285 285 203 285H151V0H41ZM203 385Q230 385 243.5 400.0Q257 415 257 451V534Q257 570 243.5 585.0Q230 600 203 600H151V385Z"/>
    <path transform="translate(164.26 164) scale(0.02700 -0.02700)" fill="#f2c118" d="M41 700H204Q289 700 328.0 660.5Q367 621 367 539V496Q367 387 295 358V356Q335 344 351.5 307.0Q368 270 368 208V85Q368 55 370.0 36.5Q372 18 380 0H268Q262 17 260.0 32.0Q258 47 258 86V214Q258 262 242.5 281.0Q227 300 189 300H151V0H41ZM191 400Q224 400 240.5 417.0Q257 434 257 474V528Q257 566 243.5 583.0Q230 600 201 600H151V400Z"/>
    <path transform="translate(188.14 164) scale(0.02700 -0.02700)" fill="#f2c118" d="M41 700H151V0H41Z"/>
    <path transform="translate(206.33 164) scale(0.02700 -0.02700)" fill="#f2c118" d="M22 166V206H126V158Q126 90 183 90Q211 90 225.5 106.5Q240 123 240 160Q240 204 220.0 237.5Q200 271 146 318Q78 378 51.0 426.5Q24 475 24 536Q24 619 66.0 664.5Q108 710 188 710Q267 710 307.5 664.5Q348 619 348 534V505H244V541Q244 577 230.0 593.5Q216 610 189 610Q134 610 134 543Q134 505 154.5 472.0Q175 439 229 392Q298 332 324.0 283.0Q350 234 350 168Q350 82 307.5 36.0Q265 -10 184 -10Q104 -10 63.0 35.5Q22 81 22 166Z"/>
    <path transform="translate(229.37 164) scale(0.02700 -0.02700)" fill="#f2c118" d="M41 700H341V600H151V415H302V315H151V100H341V0H41Z"/>
  </g>
  </g>
</svg>
